<?xml version="1.0" standalone="no"?>
<!DOCTYPE svg PUBLIC "-//W3C//DTD SVG 20010904//EN"
 "http://www.w3.org/TR/2001/REC-SVG-20010904/DTD/svg10.dtd">
<svg version="1.0" xmlns="http://www.w3.org/2000/svg"
 width="1300.000000pt" height="1300.000000pt" viewBox="0 0 1300.000000 1300.000000"
 preserveAspectRatio="xMidYMid meet">
<metadata>
Created by potrace 1.14, written by Peter Selinger 2001-2017
</metadata>
<g transform="translate(0.000000,1300.000000) scale(0.100000,-0.100000)"
fill="#000000" stroke="none">
<path d="M11780 10651 c-150 -42 -335 -131 -550 -264 -263 -163 -727 -507
-713 -529 3 -7 1 -8 -5 -4 -7 4 -31 -8 -55 -26 -74 -57 -398 -331 -497 -422
-96 -86 -109 -93 -152 -77 -34 13 -406 78 -533 93 -149 18 -800 18 -950 0 -60
-7 -176 -24 -257 -38 l-148 -24 -217 187 c-120 104 -241 206 -268 229 -245
200 -485 380 -670 501 -335 220 -621 335 -790 317 -234 -25 -386 -304 -468
-859 -26 -171 -45 -344 -45 -400 0 -16 -3 -63 -7 -103 -5 -54 -4 -77 6 -89 10
-12 10 -15 2 -9 -7 4 -13 3 -13 -1 0 -5 6 -15 13 -22 10 -11 10 -14 0 -18 -7
-3 -13 -12 -13 -21 0 -14 2 -15 10 -2 11 17 7 -35 -4 -62 -4 -9 -6 -94 -4
-188 2 -93 2 -170 0 -170 -2 0 -48 12 -103 26 -130 33 -326 70 -514 96 -207
29 -688 32 -874 5 -187 -26 -336 -62 -531 -127 -393 -131 -719 -305 -1040
-559 -212 -167 -597 -593 -568 -628 8 -10 7 -12 -4 -8 -24 9 -153 -197 -244
-392 -157 -333 -238 -624 -303 -1093 -28 -193 -32 -240 -37 -405 l-4 -140
-103 -105 c-196 -202 -295 -355 -412 -640 -26 -63 -49 -126 -52 -139 -2 -14
-9 -31 -15 -38 -6 -7 -8 -20 -4 -28 3 -9 2 -13 -4 -10 -6 3 -10 -4 -10 -17 0
-13 -4 -28 -9 -33 -5 -6 -12 -25 -16 -43 -5 -26 -3 -32 10 -32 9 0 15 -6 12
-12 -2 -7 -11 -12 -21 -10 -9 2 -16 -3 -17 -10 0 -7 -2 -22 -4 -33 -3 -11 3
-25 12 -32 12 -9 15 -25 11 -68 -5 -57 -19 -78 -46 -67 -12 4 -14 -2 -10 -26
2 -18 2 -32 -2 -32 -3 0 -7 -18 -8 -41 -3 -38 -2 -39 18 -29 14 7 20 21 20 43
0 18 5 39 10 47 7 11 10 0 10 -38 0 -48 -3 -54 -29 -69 -38 -22 -43 -70 -31
-263 12 -179 65 -446 103 -515 6 -11 12 -22 12 -25 0 -3 4 -18 8 -33 7 -25 10
-27 25 -15 15 12 16 11 4 -4 -12 -14 -8 -28 22 -92 20 -42 41 -76 47 -76 5 0
7 -5 4 -10 -3 -6 1 -13 9 -16 9 -3 13 -10 10 -15 -3 -5 9 -24 25 -41 17 -18
31 -37 31 -43 0 -5 13 -26 29 -45 24 -28 32 -32 44 -22 11 10 17 9 28 -5 13
-16 12 -17 -3 -5 -21 17 -30 2 -13 -22 9 -11 19 -15 27 -10 10 6 10 4 -1 -9
-11 -15 -11 -17 2 -17 8 0 30 -18 47 -40 17 -22 36 -40 42 -40 5 0 16 -7 25
-15 8 -8 19 -13 24 -9 5 3 8 0 7 -8 -2 -7 5 -12 15 -12 10 1 16 -1 13 -4 -10
-9 63 -53 76 -46 6 4 8 3 5 -3 -3 -5 9 -17 28 -26 21 -10 37 -12 40 -7 3 6 12
10 18 10 8 0 8 -3 -1 -9 -11 -6 -11 -10 0 -18 24 -19 106 -45 119 -38 7 5 10
4 6 -2 -8 -12 41 -27 177 -55 26 -5 55 -7 63 -4 8 3 12 2 9 -3 -9 -14 132 -21
406 -21 186 0 257 3 252 11 -4 8 0 8 15 0 12 -7 21 -8 21 -2 0 5 -6 12 -12 15
-9 3 -8 5 2 4 18 -3 70 30 70 44 0 5 -6 6 -12 2 -9 -5 -9 -2 1 9 15 18 26 23
16 7 -14 -22 10 -8 41 25 35 35 44 52 21 39 -9 -6 -9 -5 0 8 7 8 10 18 7 21
-4 4 4 4 16 2 13 -2 28 2 34 10 13 17 30 23 34 13 1 -5 -1 -8 -5 -8 -5 0 -36
-28 -70 -62 -59 -59 -62 -63 -46 -80 16 -18 16 -18 0 -12 -9 3 -17 11 -17 17
0 6 -11 0 -25 -13 -13 -12 -22 -27 -18 -33 3 -6 1 -7 -5 -3 -7 4 -12 2 -12 -3
0 -8 491 -10 1652 -9 l1653 3 67 23 c65 22 103 46 94 61 -3 4 4 7 15 7 19 0
19 -1 3 -13 -29 -21 -4 -15 32 8 19 12 31 25 27 32 -4 6 0 8 9 4 10 -3 30 10
57 39 22 24 45 44 50 44 11 0 25 31 22 50 -2 8 0 12 4 8 4 -4 17 5 29 18 20
25 25 25 148 25 125 0 127 1 164 30 33 26 36 34 11 30 -5 -1 -6 3 -2 9 5 8 11
8 19 1 18 -15 28 -1 14 18 -10 13 -10 14 1 4 11 -9 19 -6 39 12 26 24 25 59
-2 49 -8 -3 -17 -1 -21 5 -4 7 0 8 11 4 13 -5 15 -3 9 8 -8 12 -6 12 8 0 9 -7
17 -10 17 -6 0 4 6 2 14 -4 10 -8 16 -9 21 -1 3 5 14 10 23 9 13 0 12 -2 -4
-9 -12 -5 -25 -13 -28 -18 -8 -13 20 -36 33 -27 6 3 8 0 5 -8 -7 -18 65 -79
85 -72 12 5 12 3 0 -11 -13 -16 -12 -16 8 -6 16 9 24 9 29 0 4 -6 3 -8 -4 -4
-6 3 -13 2 -17 -4 -4 -7 429 -9 1376 -8 1060 2 1383 6 1386 15 3 7 11 9 20 6
10 -4 14 -2 10 4 -4 6 4 11 20 11 15 0 29 5 31 11 2 6 7 9 10 7 4 -2 32 13 62
35 30 21 51 39 46 39 -5 0 -19 -8 -30 -18 -20 -16 -20 -16 -7 1 7 9 25 23 40
30 14 7 26 18 26 25 0 11 52 13 255 13 l255 -1 -86 84 c-69 67 -82 83 -64 82
13 0 21 -4 19 -8 -3 -4 27 -41 67 -81 l71 -75 356 -1 c384 -2 397 0 504 55 51
27 118 84 118 101 0 8 5 11 10 8 6 -3 10 -1 10 5 0 6 11 28 25 48 14 20 25 46
25 58 0 13 5 24 11 26 6 2 12 17 14 33 1 17 5 37 8 45 3 8 5 22 5 30 0 8 8 42
18 75 29 93 24 272 -10 390 -48 162 -140 331 -240 438 -20 21 -36 41 -36 44 0
4 3 4 6 1 3 -4 21 0 39 8 29 12 34 12 47 -4 11 -15 11 -16 -2 -7 -22 14 7 -12
55 -50 21 -16 54 -44 74 -62 20 -18 42 -31 49 -28 7 3 11 1 8 -3 -3 -5 5 -17
17 -27 12 -9 35 -29 51 -44 16 -14 25 -19 21 -11 -4 8 9 -3 29 -25 21 -22 34
-33 31 -25 -4 8 1 6 9 -4 12 -15 16 -16 16 -5 0 12 2 12 10 -1 8 -13 11 -12
24 5 17 23 10 38 -33 78 -18 16 -36 25 -42 21 -7 -4 -9 -3 -6 3 7 11 -62 70
-76 65 -4 -1 -6 3 -5 9 2 6 -3 14 -11 17 -9 3 -11 0 -6 -8 5 -9 4 -11 -4 -6
-6 4 -9 11 -6 16 3 4 -2 13 -10 20 -8 7 -15 9 -15 4 0 -5 -5 -1 -11 9 -6 9
-15 14 -21 11 -6 -4 -8 -3 -5 3 4 6 -8 22 -26 36 -73 56 -92 79 -72 85 6 2 17
10 26 18 15 13 32 2 164 -106 81 -66 155 -120 166 -120 24 0 45 41 32 64 -4 8
-67 63 -138 121 -72 59 -134 113 -139 122 -6 11 -5 14 3 9 6 -4 11 -2 11 3 0
6 6 11 13 11 19 0 59 45 50 55 -5 4 -3 5 4 1 11 -6 66 45 99 93 17 23 75 35
66 13 -3 -10 0 -13 9 -10 7 2 23 -4 33 -14 11 -10 26 -16 33 -14 7 3 13 1 13
-4 0 -5 7 -7 15 -4 9 4 15 19 15 38 0 24 -6 34 -26 43 -14 6 -31 11 -37 9 -7
-1 -8 -1 -4 2 4 2 0 10 -10 17 -14 10 -15 16 -5 27 6 8 10 17 7 20 -3 2 6 11
20 18 22 12 34 9 135 -39 114 -53 143 -57 155 -21 11 34 -10 52 -116 100 -57
26 -105 52 -106 57 -2 5 9 23 24 39 41 43 75 102 67 115 -4 7 -3 9 3 6 6 -4
23 17 39 48 l29 55 40 -6 c36 -5 43 -2 74 30 28 29 31 35 15 35 -33 1 -84 13
-84 21 0 4 7 24 16 45 l15 38 66 -7 c72 -8 93 1 93 40 0 26 -21 39 -80 48 -27
5 -36 11 -36 26 0 10 2 17 5 14 6 -6 40 75 40 98 1 9 6 29 13 45 6 15 12 33
13 38 0 6 7 24 14 40 7 17 14 42 15 57 0 16 5 28 9 28 5 0 6 4 2 10 -3 5 -1
17 4 27 15 29 50 192 87 409 76 455 67 847 -31 1251 -22 90 -22 93 -4 120 11
15 17 33 15 39 -2 6 0 17 6 25 8 11 9 10 4 -3 -12 -38 5 -15 33 44 26 57 31
96 11 83 -10 -6 -7 22 4 32 4 4 6 2 4 -6 -2 -7 2 -15 7 -17 14 -5 47 66 50
107 4 51 4 51 16 44 6 -4 9 -1 8 6 -1 8 6 31 15 52 9 21 14 48 11 60 -5 18 -4
19 5 7 10 -12 11 -11 7 8 -3 12 -1 22 5 22 6 0 8 6 5 14 -3 7 1 26 9 40 7 15
13 30 12 34 -1 4 6 32 16 63 19 64 67 299 90 439 14 90 19 125 48 350 20 154
17 713 -5 885 -64 491 -176 773 -347 869 -50 28 -64 31 -155 33 -72 2 -118 -3
-165 -16z m-5679 -158 c13 -16 12 -17 -3 -4 -17 13 -22 21 -14 21 2 0 10 -8
17 -17z m5958 -58 c129 -148 216 -542 228 -1040 14 -560 -70 -1098 -232 -1486
-35 -83 -112 -235 -141 -278 l-23 -34 -17 44 c-23 58 -122 251 -159 312 -242
392 -608 727 -1055 965 -47 25 -87 46 -88 48 -9 7 335 444 517 658 340 400
618 667 831 800 41 25 82 46 91 46 9 0 31 -16 48 -35z m-6048 -86 c209 -136
494 -417 885 -874 192 -224 421 -516 726 -922 l159 -213 -32 -47 c-66 -98
-181 -233 -286 -337 -221 -220 -502 -400 -797 -510 -108 -41 -326 -99 -424
-114 l-63 -9 -51 56 c-246 273 -410 756 -469 1381 -15 163 -15 621 0 780 29
299 92 572 163 715 38 74 86 135 108 135 9 0 46 -19 81 -41z m669 -92 c0 -2
-10 -12 -22 -23 l-23 -19 19 23 c18 21 26 27 26 19z m2845 -2407 c20 -52 79
-180 129 -285 249 -515 566 -941 978 -1316 53 -49 93 -91 89 -93 -4 -3 -41
-17 -82 -32 -162 -58 -340 -159 -494 -279 -137 -107 -347 -337 -396 -432 -40
-78 37 -163 111 -123 10 5 54 56 98 112 73 94 183 209 272 286 70 60 237 167
332 212 54 26 96 49 93 51 -2 3 4 5 13 5 9 0 66 15 125 33 l108 33 82 -59
c202 -146 387 -259 620 -375 86 -44 157 -84 157 -89 0 -24 -143 -295 -205
-391 -187 -284 -432 -518 -727 -695 -374 -225 -789 -357 -1356 -433 -82 -11
-83 -11 -114 15 -34 29 -208 116 -276 138 l-44 14 54 31 c66 36 175 119 241
181 27 26 52 47 55 49 4 1 16 -14 27 -34 25 -46 120 -134 187 -172 76 -44 203
-88 273 -96 127 -14 258 37 366 144 122 120 170 219 117 239 -33 12 -52 -1
-86 -61 -54 -94 -150 -177 -246 -213 -99 -38 -207 -20 -358 57 -89 46 -179
134 -198 195 -18 55 -38 83 -60 83 -11 0 -53 -34 -99 -83 -92 -96 -200 -176
-325 -243 l-88 -46 -81 15 c-45 9 -140 23 -212 32 -130 16 -130 16 -163 53
-19 20 -48 62 -66 92 -33 57 -63 73 -92 50 -22 -19 -17 -41 21 -105 l35 -58
-72 8 c-40 5 -339 9 -664 10 l-591 2 -74 37 c-90 46 -235 130 -267 154 l-24
18 96 78 c53 43 105 89 116 103 27 34 10 72 -32 73 -9 0 -71 -45 -139 -100
-103 -85 -124 -98 -138 -88 -103 79 -280 243 -270 252 2 2 40 19 84 39 44 19
133 60 198 91 111 53 117 57 117 85 0 24 -5 32 -25 37 -25 6 -73 -13 -362
-147 l-83 -38 -43 52 c-77 91 -217 303 -205 311 2 2 131 24 288 50 157 26 295
51 308 56 26 11 30 51 6 70 -12 11 -50 8 -217 -20 -111 -18 -240 -39 -287 -46
-47 -7 -100 -16 -118 -19 l-33 -6 -43 93 c-24 51 -47 103 -51 116 l-6 22 178
0 c606 0 1170 135 1656 394 67 36 140 76 162 90 l40 24 132 -48 c346 -126 654
-348 883 -635 78 -99 86 -105 127 -105 46 0 83 40 83 88 0 41 -39 96 -166 238
-200 221 -468 414 -743 533 -62 27 -114 51 -117 54 -2 2 28 29 68 59 556 421
985 1035 1211 1735 25 76 50 162 57 192 l13 54 47 -139 c25 -76 64 -182 85
-234z m2529 -396 c3 -8 2 -12 -4 -9 -6 3 -10 10 -10 16 0 14 7 11 14 -7z
m-7183 -585 c182 -27 361 -78 540 -154 l104 -43 2 -89 c10 -424 102 -850 254
-1182 22 -46 39 -87 39 -91 0 -4 -46 -15 -102 -24 -57 -10 -111 -20 -120 -22
-23 -7 -32 -38 -18 -64 13 -25 32 -25 178 -1 l113 18 36 -61 c43 -71 117 -176
181 -258 40 -52 47 -78 21 -78 -5 0 -67 -27 -137 -61 -70 -33 -148 -69 -174
-81 -60 -26 -72 -65 -27 -89 16 -8 59 8 225 81 l206 91 82 -78 c44 -44 114
-106 155 -138 70 -56 72 -60 54 -75 -423 -347 -447 -372 -411 -408 18 -18 36
-15 71 12 28 21 56 27 212 45 452 53 925 75 1420 68 474 -7 730 -28 1035 -83
288 -52 458 -131 596 -275 204 -215 286 -570 168 -725 -15 -19 -29 -34 -33
-34 -3 0 -7 21 -8 46 -5 108 -68 271 -144 372 -42 54 -66 64 -94 36 -19 -19
-12 -47 21 -87 34 -40 91 -163 109 -232 8 -32 15 -91 15 -131 l0 -72 -31 -6
c-17 -3 -97 -6 -177 -6 l-145 0 6 43 c9 61 -9 167 -39 240 -55 132 -161 273
-199 265 -10 -1 -24 -12 -31 -24 -13 -19 -11 -25 16 -60 115 -148 154 -243
155 -374 l0 -85 -1130 -5 c-621 -3 -1275 -4 -1453 -2 l-323 2 8 38 c4 20 8 84
8 142 -1 92 -4 112 -27 162 -40 87 -100 145 -193 189 -93 43 -152 59 -140 38
5 -9 1 -7 -11 3 -25 21 -138 35 -422 49 -125 6 -228 13 -230 14 -2 2 17 28 42
59 60 75 107 148 160 254 182 363 229 752 136 1139 -207 863 -1055 1402 -1930
1227 -283 -56 -586 -213 -782 -403 -58 -55 -70 -85 -46 -109 21 -21 37 -13
124 62 185 162 385 271 613 335 138 39 208 50 366 57 547 25 1078 -256 1378
-728 53 -84 95 -170 138 -286 128 -340 124 -761 -10 -1102 -60 -152 -117 -253
-222 -390 -100 -131 -7 -118 -739 -110 -435 4 -640 3 -649 -5 -11 -7 -13 -7
-7 3 6 9 -49 12 -261 12 -327 0 -857 17 -973 31 -261 31 -446 101 -589 221
-87 74 -177 197 -215 296 -54 137 -118 432 -162 747 -21 153 -31 736 -15 927
11 129 46 366 55 375 2 2 41 -6 87 -18 154 -39 310 -60 489 -66 439 -14 780
82 1346 377 433 227 683 312 1034 354 59 7 343 -3 421 -15z m1656 -364 c0 -8
-4 -12 -9 -9 -5 3 -6 10 -3 15 9 13 12 11 12 -6z m1041 -217 c50 -6 92 -14 92
-18 0 -4 7 -11 16 -14 9 -3 12 -2 9 5 -7 11 -3 10 135 -22 52 -12 98 -27 101
-32 4 -5 5 -23 2 -39 -3 -19 -1 -28 6 -24 5 4 12 2 16 -4 4 -6 -11 -18 -33
-28 -21 -9 -46 -25 -55 -34 -14 -13 -23 -15 -50 -6 -17 5 -37 10 -44 11 -7 0
-10 3 -8 7 2 4 -8 7 -23 7 -15 0 -76 8 -137 18 -117 19 -559 30 -549 13 3 -4
-14 -9 -38 -10 -76 -3 -83 -4 -81 -15 1 -6 -9 -8 -23 -5 -13 2 -45 -1 -72 -8
-73 -18 -110 -21 -118 -8 -4 6 -3 8 4 4 12 -7 10 20 -3 31 -4 4 -5 3 -2 -3 11
-20 -20 -24 -37 -5 -25 28 -20 69 13 102 16 16 38 30 48 30 61 5 71 4 67 -2
-2 -4 7 -16 20 -27 20 -15 22 -22 13 -33 -10 -11 -9 -11 6 0 23 18 34 7 16
-16 -12 -17 -11 -16 7 0 18 17 18 19 1 31 -15 12 -16 14 -2 20 8 3 15 10 15
16 0 6 -7 4 -16 -4 -21 -21 -31 -20 -39 5 -9 26 -5 29 36 32 19 1 40 6 46 10
7 5 46 11 85 14 40 3 111 9 158 13 99 9 285 4 418 -12z m3938 -60 c92 -6 118
-17 139 -58 22 -42 -7 -108 -30 -70 -10 16 -25 2 -18 -16 4 -11 8 -12 13 -4 5
8 10 8 14 2 8 -14 -48 -35 -73 -27 -25 8 -134 14 -271 14 -106 1 -220 -10
-318 -30 -44 -9 -57 -8 -77 5 -28 19 -47 50 -37 61 4 5 1 5 -6 1 -7 -4 -9 -12
-5 -19 4 -6 -14 6 -40 28 -30 25 -43 42 -35 46 6 4 18 0 27 -10 9 -9 12 -11 7
-3 -11 15 8 32 36 32 9 0 25 3 35 6 15 5 15 4 3 -5 -8 -6 -11 -11 -6 -11 5 0
17 7 26 15 19 17 52 24 149 31 35 3 80 9 100 14 36 8 210 7 367 -2z m-3538
-34 c12 -8 27 -12 32 -9 6 3 10 1 10 -4 0 -6 -5 -11 -11 -11 -7 0 -17 -7 -23
-15 -10 -14 -13 -14 -31 0 -16 14 -17 16 -3 11 10 -3 20 0 24 6 4 6 3 8 -2 5
-6 -3 -16 -2 -24 4 -13 7 -13 9 0 9 13 0 13 1 0 10 -8 5 -10 10 -5 10 6 0 21
-7 33 -16z m3945 -819 c-3 -9 -8 -14 -10 -11 -3 3 -2 9 2 15 9 16 15 13 8 -4z
m-132 -258 c-10 -9 -11 -8 -5 6 3 10 9 15 12 12 3 -3 0 -11 -7 -18z m42 -41
c-3 -4 -9 -2 -14 5 -7 12 -9 12 -9 0 0 -8 -2 -12 -5 -9 -3 3 -3 12 1 21 4 13
9 14 19 4 7 -7 11 -16 8 -21z m-53 -10 c0 -3 -4 -8 -10 -11 -5 -3 -10 -1 -10
4 0 6 5 11 10 11 6 0 10 -2 10 -4z m90 -20 c0 -2 -7 -7 -16 -10 -8 -3 -12 -2
-9 4 6 10 25 14 25 6z m-144 -44 c-15 -15 -15 -15 -4 10 7 15 15 23 17 17 2
-6 -4 -18 -13 -27z m-36 -46 c0 -2 -8 -10 -17 -17 -16 -13 -17 -12 -4 4 13 16
21 21 21 13z m-60 -80 c0 -2 -8 -10 -17 -17 -16 -13 -17 -12 -4 4 13 16 21 21
21 13z m53 -27 c-8 -8 -13 -7 -18 2 -5 8 -4 10 3 5 7 -4 12 -2 12 5 0 7 3 9 7
6 4 -4 2 -12 -4 -18z m-27 -11 c5 4 5 3 1 -2 -12 -15 -34 -15 -34 0 0 9 4 11
12 4 7 -5 16 -6 21 -2z m-56 -6 c0 -4 -10 -13 -22 -21 -23 -14 -23 -14 -4 8
20 22 26 25 26 13z m-110 -132 c-6 -11 -13 -20 -16 -20 -2 0 0 9 6 20 6 11 13
20 16 20 2 0 0 -9 -6 -20z m68 -15 c3 -3 -4 -4 -16 -2 -12 2 -24 6 -28 10 -4
3 4 4 16 2 12 -2 25 -7 28 -10z m-127 -62 c12 -16 12 -17 -2 -6 -9 7 -20 9
-24 5 -5 -4 -5 -1 -1 6 9 16 11 15 27 -5z m-74 -63 c1 -16 -1 -17 -12 -7 -11
10 -8 19 10 27 1 0 1 -9 2 -20z m63 -43 c0 -2 -10 -12 -22 -23 l-23 -19 19 23
c18 21 26 27 26 19z m-147 -42 c4 0 7 -4 8 -8 2 -18 -9 -16 -27 5 -11 13 -13
18 -4 12 8 -5 18 -9 23 -9z m-4586 -109 c54 -34 118 -74 143 -87 l45 -24 -35
-2 c-19 -2 -137 -13 -262 -24 -125 -11 -233 -19 -239 -17 -9 3 230 212 248
217 1 1 46 -28 100 -63z m4403 -6 c0 -5 -5 -10 -11 -10 -5 0 -7 5 -4 10 3 6 8
10 11 10 2 0 4 -4 4 -10z m-30 -27 c-8 -3 -22 -11 -30 -17 -13 -10 -13 -9 -1
7 7 9 21 17 30 16 13 0 14 -1 1 -6z m0 -23 c0 -5 -5 -10 -11 -10 -5 0 -7 5 -4
10 3 6 8 10 11 10 2 0 4 -4 4 -10z m-354 -149 c188 -94 323 -259 398 -484 57
-171 38 -343 -49 -427 l-33 -32 -7 58 c-13 128 -53 236 -131 357 -38 58 -48
67 -73 67 -20 0 -34 -7 -41 -20 -9 -18 -4 -32 36 -93 75 -113 106 -203 112
-319 l4 -98 -173 0 -174 0 -1 68 c0 37 -6 92 -13 122 -18 76 -84 203 -143 278
-44 55 -54 63 -81 60 -20 -2 -32 -10 -38 -25 -6 -17 2 -34 42 -83 91 -114 139
-235 139 -352 l0 -67 -317 -3 c-175 -2 -346 -2 -380 0 l-62 3 5 87 c11 187
-72 419 -216 604 l-21 27 23 5 c13 3 59 10 103 16 194 26 490 97 681 163 115
40 246 92 283 112 37 20 40 19 127 -24z m704 -186 c0 -2 -9 -3 -19 -2 -11 0
-18 5 -15 9 4 6 34 0 34 -7z m85 -55 c3 -5 1 -10 -4 -10 -6 0 -11 5 -11 10 0
6 2 10 4 10 3 0 8 -4 11 -10z m-10777 -575 c-3 -3 -9 2 -12 12 -6 14 -5 15 5
6 7 -7 10 -15 7 -18z m10512 -199 c0 -2 -8 -10 -17 -17 -16 -13 -17 -12 -4 4
13 16 21 21 21 13z m-67 -61 c-3 -9 -8 -14 -10 -11 -3 3 -2 9 2 15 9 16 15 13
8 -4z m-48 -53 c-3 -3 -11 0 -18 7 -9 10 -8 11 6 5 10 -3 15 -9 12 -12z
m-10231 0 c3 -5 -1 -9 -9 -9 -8 0 -12 4 -9 9 3 4 7 8 9 8 2 0 6 -4 9 -8z
m10173 -15 c0 -7 -9 -13 -19 -13 -18 0 -18 1 -2 13 10 7 18 13 19 13 1 0 2 -6
2 -13z m-10262 -26 c-9 -8 -36 -10 -30 -2 2 4 11 8 20 8 8 0 13 -3 10 -6z
m119 -7 c3 -8 2 -12 -4 -9 -6 3 -10 10 -10 16 0 14 7 11 14 -7z m8821 -13 c-3
-6 -11 -11 -16 -11 -5 0 -4 6 3 14 14 16 24 13 13 -3z m650 5 c-10 -7 -15 -18
-11 -24 3 -6 1 -14 -5 -18 -7 -4 -9 -3 -5 4 3 5 0 13 -6 16 -11 5 -11 7 0 12
6 3 10 9 8 13 -3 4 5 8 16 8 19 2 19 1 3 -11z m-9581 -42 c3 -8 2 -12 -4 -9
-6 3 -10 10 -10 16 0 14 7 11 14 -7z m126 12 c0 -2 -8 -10 -17 -17 -16 -13
-17 -12 -4 4 13 16 21 21 21 13z m9363 -59 c-32 -31 -60 -53 -63 -50 -3 3 5
12 18 20 21 15 33 41 12 28 -18 -11 -11 1 12 21 19 15 20 16 9 2 -24 -31 3
-19 32 13 15 18 30 29 33 27 3 -3 -21 -30 -53 -61z m-9329 45 c3 -5 -1 -9 -9
-9 -8 0 -12 4 -9 9 3 4 7 8 9 8 2 0 6 -4 9 -8z m8696 -31 c0 -5 -7 -12 -16
-15 -14 -5 -15 -4 -4 9 14 17 20 19 20 6z m-8598 -76 c0 -5 4 -15 9 -22 7 -7
6 -14 -1 -18 -6 -4 -10 -3 -9 2 1 4 0 11 -1 16 -1 4 -3 12 -4 17 0 6 -14 22
-31 36 l-30 26 33 -23 c19 -13 34 -28 34 -34z m9253 35 c3 -6 -1 -7 -9 -4 -18
7 -21 14 -7 14 6 0 13 -4 16 -10z m-4214 -83 l-24 -22 19 27 c10 14 21 24 23
22 3 -3 -6 -15 -18 -27z m524 12 c-4 -5 -2 -9 4 -9 5 0 12 5 14 10 3 6 4 5 3
-2 -4 -19 -29 -16 -32 5 -1 9 2 15 7 11 5 -3 7 -10 4 -15z m-5512 -3 c4 -10 1
-13 -8 -9 -8 3 -12 9 -9 14 7 12 11 11 17 -5z m5354 -11 c0 -8 -4 -12 -9 -9
-5 3 -6 10 -3 15 9 13 12 11 12 -6z m-5272 -45 c3 -6 -1 -7 -9 -4 -18 7 -21
14 -7 14 6 0 13 -4 16 -10z m4893 -11 c3 -12 2 -12 -6 0 -6 8 -15 10 -22 6 -9
-5 -11 -4 -6 4 10 15 28 10 34 -10z m560 -14 c-3 -3 -9 2 -12 12 -6 14 -5 15
5 6 7 -7 10 -15 7 -18z m-597 -12 c13 -16 12 -17 -3 -4 -10 7 -18 15 -18 17 0
8 8 3 21 -13z m-31 4 c0 -2 -10 -12 -22 -23 l-23 -19 19 23 c18 21 26 27 26
19z m-4700 -31 c0 -2 -7 -7 -16 -10 -8 -3 -12 -2 -9 4 6 10 25 14 25 6z m4727
-80 c-1 -6 4 -10 11 -8 8 1 11 -2 7 -8 -5 -8 -13 -6 -24 4 -10 9 -21 13 -26 9
-4 -5 -5 -3 -2 3 3 6 13 11 21 11 8 0 14 -5 13 -11z m-2823 -154 c78 -80 91
-95 81 -89 -9 4 -170 165 -190 188 l-20 24 24 -20 c13 -11 61 -57 105 -103z
m2746 42 c0 -8 -19 -13 -24 -6 -3 5 1 9 9 9 8 0 15 -2 15 -3z m-3415 -14 c3
-6 -1 -7 -9 -4 -18 7 -21 14 -7 14 6 0 13 -4 16 -10z"/>
<path d="M9215 4880 c-3 -5 -4 -14 0 -19 7 -12 173 -141 189 -147 6 -2 40 18
76 45 108 82 134 107 126 119 -9 15 -382 17 -391 2z"/>
<path d="M6900 6250 c-9 -6 -10 -10 -3 -10 6 0 15 5 18 10 8 12 4 12 -15 0z"/>
<path d="M6840 6239 c0 -5 5 -7 10 -4 6 3 10 8 10 11 0 2 -4 4 -10 4 -5 0 -10
-5 -10 -11z"/>
<path d="M6940 6235 c-11 -13 -11 -18 0 -28 10 -9 11 -9 5 2 -4 8 -2 17 6 22
7 4 11 11 8 14 -4 3 -12 -2 -19 -10z"/>
<path d="M7650 6241 c8 -6 24 -11 35 -11 17 0 17 -2 5 -10 -8 -5 -10 -10 -5
-10 6 0 16 4 24 9 14 9 6 13 -54 27 -16 4 -17 3 -5 -5z"/>
<path d="M6766 6232 c-3 -5 1 -15 8 -21 11 -10 14 -9 12 3 -3 21 -13 29 -20
18z"/>
<path d="M7753 6224 c0 -16 13 -19 21 -5 3 5 0 11 -7 14 -8 3 -14 -1 -14 -9z"/>
<path d="M6704 6212 c-8 -5 -7 -11 4 -22 14 -13 15 -12 9 2 -3 9 -1 19 6 22 7
2 8 5 2 5 -5 0 -15 -3 -21 -7z"/>
<path d="M7788 6203 c7 -3 16 -2 19 1 4 3 -2 6 -13 5 -11 0 -14 -3 -6 -6z"/>
<path d="M7498 6183 c7 -3 16 -2 19 1 4 3 -2 6 -13 5 -11 0 -14 -3 -6 -6z"/>
<path d="M7098 6173 c7 -3 16 -2 19 1 4 3 -2 6 -13 5 -11 0 -14 -3 -6 -6z"/>
<path d="M7218 6173 c12 -2 32 -2 45 0 12 2 2 4 -23 4 -25 0 -35 -2 -22 -4z"/>
<path d="M7308 6173 c12 -2 30 -2 40 0 9 3 -1 5 -23 4 -22 0 -30 -2 -17 -4z"/>
<path d="M6825 6150 c10 -11 20 -20 23 -20 3 0 -3 9 -13 20 -10 11 -20 20 -23
20 -3 0 3 -9 13 -20z"/>
<path d="M7488 6163 c6 -2 18 -2 25 0 6 3 1 5 -13 5 -14 0 -19 -2 -12 -5z"/>
<path d="M7088 6153 c6 -2 18 -2 25 0 6 3 1 5 -13 5 -14 0 -19 -2 -12 -5z"/>
<path d="M6860 6136 c0 -2 8 -10 18 -17 15 -13 16 -12 3 4 -13 16 -21 21 -21
13z"/>
<path d="M6670 6126 c0 -2 8 -10 18 -17 15 -13 16 -12 3 4 -13 16 -21 21 -21
13z"/>
<path d="M6749 6112 c11 -8 11 -10 0 -14 -8 -3 0 -5 18 -4 35 1 32 10 -7 21
-17 4 -21 3 -11 -3z"/>
<path d="M7708 6113 c7 -3 16 -2 19 1 4 3 -2 6 -13 5 -11 0 -14 -3 -6 -6z"/>
<path d="M7837 6103 c3 -7 8 -13 12 -13 4 0 8 6 8 13 0 8 -6 14 -13 14 -7 0
-10 -6 -7 -14z"/>
<path d="M10815 6150 c3 -5 14 -10 23 -10 15 0 15 2 2 10 -20 13 -33 13 -25 0z"/>
<path d="M11611 6136 c7 -15 15 -23 17 -16 3 7 -3 19 -13 28 -15 16 -16 15 -4
-12z"/>
<path d="M10869 6131 c9 -6 10 -11 2 -15 -14 -9 -14 -26 0 -26 5 0 8 4 4 9 -3
5 -1 12 5 16 13 8 3 25 -13 25 -8 0 -8 -3 2 -9z"/>
<path d="M11035 6110 c3 -6 -6 -11 -22 -11 -27 -2 -27 -2 -3 -6 14 -3 29 -9
35 -14 12 -12 25 -11 25 1 0 6 -8 10 -17 10 -14 0 -15 2 -5 9 11 7 10 9 -3 14
-9 4 -13 3 -10 -3z"/>
<path d="M11208 6103 c7 -3 16 -2 19 1 4 3 -2 6 -13 5 -11 0 -14 -3 -6 -6z"/>
<path d="M11425 6101 c19 -8 19 -9 -3 -14 -18 -4 -18 -4 -2 -3 26 1 28 20 3
23 -15 2 -15 1 2 -6z"/>
<path d="M11488 6103 c6 -2 18 -2 25 0 6 3 1 5 -13 5 -14 0 -19 -2 -12 -5z"/>
<path d="M11088 6093 c6 -2 18 -2 25 0 6 3 1 5 -13 5 -14 0 -19 -2 -12 -5z"/>
<path d="M11258 6093 c7 -3 16 -2 19 1 4 3 -2 6 -13 5 -11 0 -14 -3 -6 -6z"/>
<path d="M11368 6093 c7 -3 16 -2 19 1 4 3 -2 6 -13 5 -11 0 -14 -3 -6 -6z"/>
<path d="M11488 6083 c6 -2 18 -2 25 0 6 3 1 5 -13 5 -14 0 -19 -2 -12 -5z"/>
<path d="M11973 5046 c4 -10 1 -13 -7 -10 -16 6 -30 -11 -21 -26 7 -11 45 19
45 37 0 7 -5 13 -11 13 -6 0 -9 -7 -6 -14z"/>
<path d="M11666 4532 c-2 -4 -7 -22 -11 -41 -6 -30 -5 -33 11 -27 10 4 15 4
11 0 -11 -11 60 -44 79 -37 12 4 15 3 10 -5 -9 -15 -5 -15 28 -2 30 11 33 31
9 52 -25 21 -132 68 -137 60z"/>
<path d="M6484 2727 c-22 -23 -48 -52 -58 -64 l-19 -23 117 0 118 0 -32 40
c-17 22 -36 38 -41 34 -5 -3 -9 1 -9 9 0 8 -8 21 -18 30 -17 16 -21 14 -58
-26z m57 16 c13 -16 12 -17 -3 -4 -10 7 -18 15 -18 17 0 8 8 3 21 -13z m-1
-28 c0 -2 -6 -8 -13 -14 -10 -8 -14 -7 -14 2 0 8 6 14 14 14 7 0 13 -1 13 -2z"/>
<path d="M2505 2500 c-3 -5 -1 -10 4 -10 6 0 11 5 11 10 0 6 -2 10 -4 10 -3 0
-8 -4 -11 -10z"/>
</g>
</svg>
